<?xml version="1.0" encoding="UTF-8"?>
<svg id="uuid-6671edb9-251f-4b10-bb04-cf02c59990c5" data-name="Capa_1" xmlns="http://www.w3.org/2000/svg" viewBox="0 0 977.23 546.77">
  <defs>
    <style>
      .uuid-3e22e17e-3aa9-4d6e-a624-cbfd8041aaa5 {
        fill: #0071bc;
      }

      .uuid-78450f0c-1e6b-480f-99cc-272f170e5329 {
        fill: red;
      }

      .uuid-96020b3a-5dc4-467b-af03-4c5aebfe5f84 {
        fill: #006837;
      }
    </style>
  </defs>
  <path class="uuid-78450f0c-1e6b-480f-99cc-272f170e5329" d="M298.15,540.39L6.35,292c-7.19-6.12,2.54-16.03,21.42-22.02L592.96,90.76c14.28-4.53,32.79-4.53,41.28,0l336.17,179.22c11.23,5.99,8.3,15.9-6.72,22.02l-609.21,248.39c-20.86,8.51-46.34,8.51-56.34,0Z"/>
  <path class="uuid-96020b3a-5dc4-467b-af03-4c5aebfe5f84" d="M289.44,485.82L2.35,245.59c-7.1-5.94,2.46-15.56,21.05-21.38L581.48,49.66c14.14-4.42,32.43-4.42,40.79,0l330.15,174.54c11,5.82,8,15.44-6.87,21.38l-600.81,240.24c-20.5,8.2-45.51,8.2-55.3,0Z"/>
  <path class="uuid-3e22e17e-3aa9-4d6e-a624-cbfd8041aaa5" d="M298.72,430.11L13.16,195.63c-7.09-5.82,2.28-15.24,20.62-20.94L585.81,3.27c14.02-4.35,32.17-4.35,40.48,0l327.08,171.43c10.87,5.7,7.87,15.12-6.86,20.94l-593.25,234.47c-20.17,7.97-44.84,7.97-54.54,0Z"/>
</svg>